<svg width="327" height="76" viewBox="0 0 327 76" fill="none" xmlns="http://www.w3.org/2000/svg">
<g filter="url(#filter0_d_754_1449)">
<path d="M7 33.992C7 16.8756 20.8756 3 37.992 3H288.833C305.95 3 319.826 16.8756 319.826 33.992C319.826 51.1084 305.95 64.984 288.833 64.984H37.992C20.8756 64.984 7 51.1084 7 33.992Z" fill="white"/>
<path d="M79.1026 37.9462V43.7688C79.1026 44.4893 78.8817 45.0588 78.4401 45.4772C78.0062 45.8956 77.4329 46.1048 76.72 46.1048C76.0072 46.1048 75.43 45.8956 74.9884 45.4772C74.5545 45.0588 74.3375 44.4893 74.3375 43.7688H75.6741C75.6818 44.1252 75.7709 44.408 75.9414 44.6172C76.1196 44.8264 76.3791 44.931 76.72 44.931C77.061 44.931 77.3205 44.8264 77.4987 44.6172C77.6769 44.4002 77.766 44.1174 77.766 43.7688V37.9462H79.1026Z" fill="#5951FF"/>
<path d="M87.0573 39.6197V46.0235H85.7324V45.268C85.5232 45.5315 85.2481 45.7407 84.9072 45.8956C84.574 46.0428 84.2176 46.1164 83.838 46.1164C83.3344 46.1164 82.8811 46.0118 82.4782 45.8026C82.0831 45.5934 81.7693 45.2835 81.5368 44.8729C81.3121 44.4622 81.1998 43.9664 81.1998 43.3853V39.6197H82.5131V43.1877C82.5131 43.761 82.6564 44.2027 82.9431 44.5126C83.2298 44.8148 83.621 44.9659 84.1169 44.9659C84.6128 44.9659 85.0041 44.8148 85.2907 44.5126C85.5852 44.2027 85.7324 43.761 85.7324 43.1877V39.6197H87.0573Z" fill="#5951FF"/>
<path d="M92.0363 39.5151C92.5399 39.5151 92.9893 39.6197 93.3845 39.8289C93.7873 40.0381 94.1011 40.348 94.3258 40.7587C94.5505 41.1693 94.6629 41.6652 94.6629 42.2463V46.0235H93.3496V42.4439C93.3496 41.8705 93.2062 41.4328 92.9196 41.1306C92.6329 40.8207 92.2416 40.6657 91.7458 40.6657C91.2499 40.6657 90.8547 40.8207 90.5603 41.1306C90.2736 41.4328 90.1303 41.8705 90.1303 42.4439V46.0235H88.8054V39.6197H90.1303V40.3519C90.3472 40.0885 90.6223 39.8832 90.9555 39.736C91.2964 39.5887 91.6566 39.5151 92.0363 39.5151Z" fill="#5951FF"/>
<path d="M102.222 42.6647C102.222 42.9049 102.206 43.1218 102.175 43.3155H97.2826C97.3214 43.8269 97.5112 44.2375 97.8521 44.5475C98.193 44.8574 98.6114 45.0123 99.1073 45.0123C99.8201 45.0123 100.324 44.714 100.618 44.1174H102.048C101.854 44.7063 101.501 45.1905 100.99 45.5702C100.486 45.9421 99.8588 46.1281 99.1073 46.1281C98.4952 46.1281 97.9451 45.9925 97.457 45.7213C96.9766 45.4424 96.5969 45.055 96.318 44.5591C96.0468 44.0555 95.9112 43.4744 95.9112 42.8158C95.9112 42.1572 96.043 41.58 96.3064 41.0841C96.5776 40.5805 96.9533 40.1931 97.4337 39.9219C97.9218 39.6507 98.4797 39.5151 99.1073 39.5151C99.7116 39.5151 100.25 39.6469 100.723 39.9103C101.195 40.1737 101.563 40.5456 101.827 41.026C102.09 41.4986 102.222 42.0449 102.222 42.6647ZM100.839 42.2463C100.831 41.7582 100.657 41.3669 100.316 41.0725C99.9751 40.7781 99.5528 40.6308 99.0492 40.6308C98.592 40.6308 98.2008 40.7781 97.8754 41.0725C97.5499 41.3592 97.3562 41.7504 97.2943 42.2463H100.839Z" fill="#5951FF"/>
<path d="M106.196 38.7597V37.551H108.614V46.0235H107.277V38.7597H106.196Z" fill="#5951FF"/>
<path d="M110.434 41.6768C110.434 40.3364 110.658 39.2904 111.108 38.5389C111.565 37.7796 112.347 37.3999 113.455 37.3999C114.563 37.3999 115.342 37.7796 115.791 38.5389C116.249 39.2904 116.477 40.3364 116.477 41.6768C116.477 43.0327 116.249 44.0942 115.791 44.8613C115.342 45.6206 114.563 46.0002 113.455 46.0002C112.347 46.0002 111.565 45.6206 111.108 44.8613C110.658 44.0942 110.434 43.0327 110.434 41.6768ZM115.175 41.6768C115.175 41.0492 115.133 40.5185 115.048 40.0846C114.97 39.6507 114.807 39.2982 114.559 39.027C114.312 38.7481 113.943 38.6086 113.455 38.6086C112.967 38.6086 112.599 38.7481 112.351 39.027C112.103 39.2982 111.937 39.6507 111.852 40.0846C111.774 40.5185 111.735 41.0492 111.735 41.6768C111.735 42.3277 111.774 42.8739 111.852 43.3155C111.929 43.7572 112.092 44.1136 112.34 44.3848C112.595 44.6559 112.967 44.7915 113.455 44.7915C113.943 44.7915 114.312 44.6559 114.559 44.3848C114.815 44.1136 114.982 43.7572 115.059 43.3155C115.137 42.8739 115.175 42.3277 115.175 41.6768Z" fill="#5951FF"/>
<path d="M125.988 41.2584V42.3741H121.212V41.2584H125.988Z" fill="#5951FF"/>
<path d="M130.541 38.7597V37.551H132.958V46.0235H131.622V38.7597H130.541Z" fill="#5951FF"/>
<path d="M134.779 41.6768C134.779 40.3364 135.003 39.2904 135.453 38.5389C135.91 37.7796 136.692 37.3999 137.8 37.3999C138.908 37.3999 139.687 37.7796 140.136 38.5389C140.593 39.2904 140.822 40.3364 140.822 41.6768C140.822 43.0327 140.593 44.0942 140.136 44.8613C139.687 45.6206 138.908 46.0002 137.8 46.0002C136.692 46.0002 135.91 45.6206 135.453 44.8613C135.003 44.0942 134.779 43.0327 134.779 41.6768ZM139.52 41.6768C139.52 41.0492 139.478 40.5185 139.393 40.0846C139.315 39.6507 139.152 39.2982 138.904 39.027C138.656 38.7481 138.288 38.6086 137.8 38.6086C137.312 38.6086 136.944 38.7481 136.696 39.027C136.448 39.2982 136.282 39.6507 136.196 40.0846C136.119 40.5185 136.08 41.0492 136.08 41.6768C136.08 42.3277 136.119 42.8739 136.196 43.3155C136.274 43.7572 136.437 44.1136 136.685 44.3848C136.94 44.6559 137.312 44.7915 137.8 44.7915C138.288 44.7915 138.656 44.6559 138.904 44.3848C139.16 44.1136 139.327 43.7572 139.404 43.3155C139.482 42.8739 139.52 42.3277 139.52 41.6768Z" fill="#5951FF"/>
<path d="M142.933 46.1048C142.693 46.1048 142.491 46.0235 142.329 45.8607C142.166 45.698 142.084 45.4966 142.084 45.2564C142.084 45.0162 142.166 44.8148 142.329 44.6521C142.491 44.4893 142.693 44.408 142.933 44.408C143.165 44.408 143.363 44.4893 143.526 44.6521C143.688 44.8148 143.77 45.0162 143.77 45.2564C143.77 45.4966 143.688 45.698 143.526 45.8607C143.363 46.0235 143.165 46.1048 142.933 46.1048ZM142.933 41.2236C142.693 41.2236 142.491 41.1422 142.329 40.9795C142.166 40.8168 142.084 40.6153 142.084 40.3752C142.084 40.135 142.166 39.9335 142.329 39.7708C142.491 39.6081 142.693 39.5268 142.933 39.5268C143.165 39.5268 143.363 39.6081 143.526 39.7708C143.688 39.9335 143.77 40.135 143.77 40.3752C143.77 40.6153 143.688 40.8168 143.526 40.9795C143.363 41.1422 143.165 41.2236 142.933 41.2236Z" fill="#5951FF"/>
<path d="M145.073 41.6768C145.073 40.3364 145.297 39.2904 145.747 38.5389C146.204 37.7796 146.986 37.3999 148.094 37.3999C149.202 37.3999 149.981 37.7796 150.43 38.5389C150.888 39.2904 151.116 40.3364 151.116 41.6768C151.116 43.0327 150.888 44.0942 150.43 44.8613C149.981 45.6206 149.202 46.0002 148.094 46.0002C146.986 46.0002 146.204 45.6206 145.747 44.8613C145.297 44.0942 145.073 43.0327 145.073 41.6768ZM149.814 41.6768C149.814 41.0492 149.772 40.5185 149.687 40.0846C149.609 39.6507 149.446 39.2982 149.198 39.027C148.951 38.7481 148.583 38.6086 148.094 38.6086C147.606 38.6086 147.238 38.7481 146.99 39.027C146.742 39.2982 146.576 39.6507 146.491 40.0846C146.413 40.5185 146.374 41.0492 146.374 41.6768C146.374 42.3277 146.413 42.8739 146.491 43.3155C146.568 43.7572 146.731 44.1136 146.979 44.3848C147.234 44.6559 147.606 44.7915 148.094 44.7915C148.583 44.7915 148.951 44.6559 149.198 44.3848C149.454 44.1136 149.621 43.7572 149.698 43.3155C149.776 42.8739 149.814 42.3277 149.814 41.6768Z" fill="#5951FF"/>
<path d="M152.518 41.6768C152.518 40.3364 152.743 39.2904 153.192 38.5389C153.649 37.7796 154.432 37.3999 155.54 37.3999C156.648 37.3999 157.426 37.7796 157.876 38.5389C158.333 39.2904 158.561 40.3364 158.561 41.6768C158.561 43.0327 158.333 44.0942 157.876 44.8613C157.426 45.6206 156.648 46.0002 155.54 46.0002C154.432 46.0002 153.649 45.6206 153.192 44.8613C152.743 44.0942 152.518 43.0327 152.518 41.6768ZM157.26 41.6768C157.26 41.0492 157.217 40.5185 157.132 40.0846C157.054 39.6507 156.892 39.2982 156.644 39.027C156.396 38.7481 156.028 38.6086 155.54 38.6086C155.052 38.6086 154.684 38.7481 154.436 39.027C154.188 39.2982 154.021 39.6507 153.936 40.0846C153.858 40.5185 153.82 41.0492 153.82 41.6768C153.82 42.3277 153.858 42.8739 153.936 43.3155C154.013 43.7572 154.176 44.1136 154.424 44.3848C154.68 44.6559 155.052 44.7915 155.54 44.7915C156.028 44.7915 156.396 44.6559 156.644 44.3848C156.9 44.1136 157.066 43.7572 157.144 43.3155C157.221 42.8739 157.26 42.3277 157.26 41.6768Z" fill="#5951FF"/>
<path d="M168.026 44.3731H164.644L164.063 46.0235H162.68L165.574 37.9345H167.108L170.002 46.0235H168.607L168.026 44.3731ZM167.654 43.2923L166.341 39.5384L165.016 43.2923H167.654Z" fill="#5951FF"/>
<path d="M179.768 37.9462V46.0235H178.443V40.4914L175.979 46.0235H175.061L172.585 40.4914V46.0235H171.26V37.9462H172.69L175.526 44.2802L178.35 37.9462H179.768Z" fill="#5951FF"/>
<path d="M81.9596 31.5275H80.5243L76.2058 24.993V31.5275H74.7705V22.7645H76.2058L80.5243 29.2864V22.7645H81.9596V31.5275Z" fill="#232323"/>
<path d="M90.2027 27.8888C90.2027 28.149 90.1859 28.3841 90.1523 28.5939H84.8517C84.8937 29.1479 85.0993 29.5927 85.4686 29.9285C85.838 30.2642 86.2912 30.4321 86.8284 30.4321C87.6006 30.4321 88.1462 30.109 88.4652 29.4626H90.0138C89.804 30.1006 89.4221 30.6252 88.8681 31.0365C88.3225 31.4393 87.6426 31.6408 86.8284 31.6408C86.1653 31.6408 85.5694 31.4939 85.0406 31.2001C84.5202 30.898 84.1089 30.4783 83.8067 29.9411C83.5129 29.3955 83.366 28.766 83.366 28.0525C83.366 27.339 83.5087 26.7137 83.7941 26.1765C84.0879 25.6309 84.495 25.2112 85.0154 24.9175C85.5442 24.6237 86.1485 24.4768 86.8284 24.4768C87.4831 24.4768 88.0665 24.6195 88.5785 24.9049C89.0905 25.1903 89.4892 25.5932 89.7746 26.1136C90.06 26.6256 90.2027 27.2173 90.2027 27.8888ZM88.7044 27.4356C88.696 26.9068 88.5072 26.4829 88.1378 26.1639C87.7685 25.845 87.3111 25.6855 86.7655 25.6855C86.2702 25.6855 85.8464 25.845 85.4938 26.1639C85.1413 26.4745 84.9314 26.8984 84.8643 27.4356H88.7044Z" fill="#232323"/>
<path d="M100.932 24.5901L98.7792 31.5275H97.2683L95.8708 26.4031L94.4732 31.5275H92.9624L90.7968 24.5901H92.2573L93.7052 30.1677L95.1783 24.5901H96.6766L98.0867 30.1425L99.522 24.5901H100.932Z" fill="#232323"/>
<path d="M116.67 22.7771L114.076 31.5275H112.452L110.614 24.9049L108.662 31.5275L107.051 31.5401L104.57 22.7771H106.094L107.907 29.9033L109.871 22.7771H111.482L113.308 29.8655L115.134 22.7771H116.67Z" fill="#232323"/>
<path d="M120.863 31.6408C120.208 31.6408 119.616 31.4939 119.087 31.2001C118.559 30.898 118.143 30.4783 117.841 29.9411C117.539 29.3955 117.388 28.766 117.388 28.0525C117.388 27.3474 117.543 26.7221 117.854 26.1765C118.164 25.6309 118.588 25.2112 119.125 24.9175C119.662 24.6237 120.263 24.4768 120.926 24.4768C121.589 24.4768 122.189 24.6237 122.726 24.9175C123.263 25.2112 123.687 25.6309 123.998 26.1765C124.308 26.7221 124.464 27.3474 124.464 28.0525C124.464 28.7576 124.304 29.3829 123.985 29.9285C123.666 30.4741 123.23 30.898 122.676 31.2001C122.13 31.4939 121.526 31.6408 120.863 31.6408ZM120.863 30.3943C121.232 30.3943 121.576 30.3062 121.895 30.1299C122.222 29.9537 122.487 29.6893 122.688 29.3367C122.89 28.9842 122.991 28.5561 122.991 28.0525C122.991 27.5489 122.894 27.125 122.701 26.7809C122.508 26.4283 122.252 26.1639 121.933 25.9877C121.614 25.8114 121.27 25.7233 120.9 25.7233C120.531 25.7233 120.187 25.8114 119.868 25.9877C119.557 26.1639 119.31 26.4283 119.125 26.7809C118.941 27.125 118.848 27.5489 118.848 28.0525C118.848 28.7995 119.037 29.3787 119.415 29.79C119.801 30.1929 120.284 30.3943 120.863 30.3943Z" fill="#232323"/>
<path d="M127.318 25.5974C127.528 25.2448 127.805 24.972 128.149 24.779C128.501 24.5775 128.917 24.4768 129.395 24.4768V25.9625H129.03C128.468 25.9625 128.04 26.1052 127.746 26.3906C127.46 26.6759 127.318 27.1712 127.318 27.8762V31.5275H125.882V24.5901H127.318V25.5974Z" fill="#232323"/>
<path d="M133.459 28.0651L136.657 31.5275H134.718L132.15 28.5435V31.5275H130.715V22.2105H132.15V27.6244L134.668 24.5901H136.657L133.459 28.0651Z" fill="#232323"/>
<path d="M140.695 31.6408C140.04 31.6408 139.449 31.4939 138.92 31.2001C138.391 30.898 137.976 30.4783 137.673 29.9411C137.371 29.3955 137.22 28.766 137.22 28.0525C137.22 27.3474 137.376 26.7221 137.686 26.1765C137.997 25.6309 138.421 25.2112 138.958 24.9175C139.495 24.6237 140.095 24.4768 140.758 24.4768C141.421 24.4768 142.021 24.6237 142.559 24.9175C143.096 25.2112 143.52 25.6309 143.83 26.1765C144.141 26.7221 144.296 27.3474 144.296 28.0525C144.296 28.7576 144.137 29.3829 143.818 29.9285C143.499 30.4741 143.062 30.898 142.508 31.2001C141.963 31.4939 141.358 31.6408 140.695 31.6408ZM140.695 30.3943C141.065 30.3943 141.409 30.3062 141.728 30.1299C142.055 29.9537 142.319 29.6893 142.521 29.3367C142.722 28.9842 142.823 28.5561 142.823 28.0525C142.823 27.5489 142.726 27.125 142.533 26.7809C142.34 26.4283 142.084 26.1639 141.765 25.9877C141.446 25.8114 141.102 25.7233 140.733 25.7233C140.364 25.7233 140.02 25.8114 139.701 25.9877C139.39 26.1639 139.142 26.4283 138.958 26.7809C138.773 27.125 138.681 27.5489 138.681 28.0525C138.681 28.7995 138.87 29.3787 139.247 29.79C139.633 30.1929 140.116 30.3943 140.695 30.3943Z" fill="#232323"/>
<path d="M151.998 24.5901V31.5275H150.562V30.7091C150.336 30.9945 150.038 31.2211 149.668 31.389C149.307 31.5485 148.921 31.6282 148.51 31.6282C147.964 31.6282 147.473 31.5149 147.037 31.2883C146.609 31.0616 146.269 30.7259 146.017 30.281C145.774 29.8362 145.652 29.299 145.652 28.6694V24.5901H147.075V28.4554C147.075 29.0765 147.23 29.555 147.541 29.8907C147.851 30.2181 148.275 30.3817 148.812 30.3817C149.349 30.3817 149.773 30.2181 150.084 29.8907C150.403 29.555 150.562 29.0765 150.562 28.4554V24.5901H151.998Z" fill="#232323"/>
<path d="M155.566 25.761V29.6011C155.566 29.8613 155.625 30.0502 155.742 30.1677C155.868 30.2768 156.078 30.3314 156.372 30.3314H157.253V31.5275H156.12C155.474 31.5275 154.978 31.3764 154.634 31.0742C154.29 30.7721 154.118 30.281 154.118 29.6011V25.761H153.3V24.5901H154.118V22.8652H155.566V24.5901H157.253V25.761H155.566Z" fill="#232323"/>
<path d="M163.282 22.7771V31.5275H161.847V22.7771H163.282Z" fill="#232323"/>
<path d="M167.684 31.6408C167.139 31.6408 166.648 31.5443 166.211 31.3512C165.783 31.1498 165.443 30.8812 165.191 30.5454C164.94 30.2013 164.805 29.8194 164.789 29.3997H166.274C166.299 29.6935 166.438 29.9411 166.69 30.1425C166.95 30.3356 167.273 30.4321 167.659 30.4321C168.062 30.4321 168.373 30.3566 168.591 30.2055C168.818 30.046 168.931 29.8446 168.931 29.6011C168.931 29.3409 168.805 29.1479 168.553 29.022C168.31 28.8961 167.919 28.7576 167.382 28.6065C166.862 28.4638 166.438 28.3253 166.111 28.191C165.783 28.0567 165.498 27.8511 165.254 27.5741C165.019 27.2971 164.902 26.9319 164.902 26.4787C164.902 26.1094 165.011 25.7736 165.229 25.4715C165.447 25.1609 165.758 24.9175 166.161 24.7412C166.572 24.5649 167.042 24.4768 167.571 24.4768C168.36 24.4768 168.994 24.6782 169.472 25.0811C169.959 25.4756 170.219 26.017 170.253 26.7053H168.818C168.792 26.3948 168.666 26.1471 168.44 25.9625C168.213 25.7778 167.907 25.6855 167.521 25.6855C167.143 25.6855 166.853 25.7568 166.652 25.8995C166.451 26.0422 166.35 26.2311 166.35 26.4661C166.35 26.6508 166.417 26.806 166.551 26.9319C166.686 27.0579 166.849 27.1586 167.042 27.2341C167.235 27.3013 167.521 27.3894 167.898 27.4985C168.402 27.6328 168.813 27.7713 169.132 27.914C169.46 28.0483 169.741 28.2498 169.976 28.5184C170.211 28.7869 170.333 29.1437 170.341 29.5885C170.341 29.983 170.232 30.3356 170.014 30.6461C169.795 30.9567 169.485 31.2001 169.082 31.3764C168.687 31.5527 168.222 31.6408 167.684 31.6408Z" fill="#232323"/>
<path d="M180.438 29.7396H176.774L176.145 31.5275H174.646L177.781 22.7645H179.443L182.578 31.5275H181.067L180.438 29.7396ZM180.035 28.5687L178.612 24.502L177.177 28.5687H180.035Z" fill="#232323"/>
<path d="M186.623 30.2432L188.587 24.5901H190.111L187.467 31.5275H185.754L183.123 24.5901H184.659L186.623 30.2432Z" fill="#232323"/>
<path d="M190.717 28.0273C190.717 27.3306 190.86 26.7137 191.145 26.1765C191.439 25.6393 191.834 25.2238 192.329 24.9301C192.832 24.6279 193.386 24.4768 193.991 24.4768C194.536 24.4768 195.011 24.5859 195.414 24.8042C195.825 25.014 196.152 25.2784 196.396 25.5974V24.5901H197.843V31.5275H196.396V30.4951C196.152 30.8224 195.821 31.0952 195.401 31.3134C194.981 31.5317 194.503 31.6408 193.966 31.6408C193.37 31.6408 192.824 31.4897 192.329 31.1875C191.834 30.877 191.439 30.4489 191.145 29.9033C190.86 29.3493 190.717 28.724 190.717 28.0273ZM196.396 28.0525C196.396 27.5741 196.295 27.1586 196.093 26.806C195.9 26.4535 195.644 26.1849 195.325 26.0003C195.006 25.8156 194.662 25.7233 194.293 25.7233C193.924 25.7233 193.579 25.8156 193.261 26.0003C192.942 26.1765 192.681 26.4409 192.48 26.7935C192.287 27.1376 192.19 27.5489 192.19 28.0273C192.19 28.5058 192.287 28.9254 192.48 29.2864C192.681 29.6473 192.942 29.9243 193.261 30.1173C193.588 30.302 193.932 30.3943 194.293 30.3943C194.662 30.3943 195.006 30.302 195.325 30.1173C195.644 29.9327 195.9 29.6641 196.093 29.3116C196.295 28.9506 196.396 28.5309 196.396 28.0525Z" fill="#232323"/>
<path d="M200.459 23.671C200.199 23.671 199.981 23.5829 199.804 23.4066C199.628 23.2303 199.54 23.0121 199.54 22.7519C199.54 22.4917 199.628 22.2735 199.804 22.0972C199.981 21.9209 200.199 21.8328 200.459 21.8328C200.711 21.8328 200.925 21.9209 201.101 22.0972C201.277 22.2735 201.365 22.4917 201.365 22.7519C201.365 23.0121 201.277 23.2303 201.101 23.4066C200.925 23.5829 200.711 23.671 200.459 23.671ZM201.164 24.5901V31.5275H199.729V24.5901H201.164Z" fill="#232323"/>
<path d="M204.484 22.2105V31.5275H203.048V22.2105H204.484Z" fill="#232323"/>
<path d="M205.89 28.0273C205.89 27.3306 206.032 26.7137 206.318 26.1765C206.612 25.6393 207.006 25.2238 207.501 24.9301C208.005 24.6279 208.559 24.4768 209.163 24.4768C209.709 24.4768 210.183 24.5859 210.586 24.8042C210.997 25.014 211.325 25.2784 211.568 25.5974V24.5901H213.016V31.5275H211.568V30.4951C211.325 30.8224 210.993 31.0952 210.573 31.3134C210.154 31.5317 209.675 31.6408 209.138 31.6408C208.542 31.6408 207.997 31.4897 207.501 31.1875C207.006 30.877 206.612 30.4489 206.318 29.9033C206.032 29.3493 205.89 28.724 205.89 28.0273ZM211.568 28.0525C211.568 27.5741 211.467 27.1586 211.266 26.806C211.073 26.4535 210.817 26.1849 210.498 26.0003C210.179 25.8156 209.835 25.7233 209.465 25.7233C209.096 25.7233 208.752 25.8156 208.433 26.0003C208.114 26.1765 207.854 26.4409 207.652 26.7935C207.459 27.1376 207.363 27.5489 207.363 28.0273C207.363 28.5058 207.459 28.9254 207.652 29.2864C207.854 29.6473 208.114 29.9243 208.433 30.1173C208.76 30.302 209.105 30.3943 209.465 30.3943C209.835 30.3943 210.179 30.302 210.498 30.1173C210.817 29.9327 211.073 29.6641 211.266 29.3116C211.467 28.9506 211.568 28.5309 211.568 28.0525Z" fill="#232323"/>
<path d="M216.337 25.6225C216.58 25.2868 216.912 25.014 217.331 24.8042C217.759 24.5859 218.234 24.4768 218.754 24.4768C219.367 24.4768 219.921 24.6237 220.416 24.9175C220.911 25.2112 221.301 25.6309 221.587 26.1765C221.872 26.7137 222.015 27.3306 222.015 28.0273C222.015 28.724 221.872 29.3493 221.587 29.9033C221.301 30.4489 220.907 30.877 220.403 31.1875C219.908 31.4897 219.358 31.6408 218.754 31.6408C218.217 31.6408 217.738 31.5359 217.319 31.326C216.907 31.1162 216.58 30.8476 216.337 30.5202V31.5275H214.901V22.2105H216.337V25.6225ZM220.554 28.0273C220.554 27.5489 220.454 27.1376 220.252 26.7935C220.059 26.4409 219.799 26.1765 219.472 26.0003C219.153 25.8156 218.809 25.7233 218.439 25.7233C218.078 25.7233 217.734 25.8156 217.407 26.0003C217.088 26.1849 216.828 26.4535 216.626 26.806C216.433 27.1586 216.337 27.5741 216.337 28.0525C216.337 28.5309 216.433 28.9506 216.626 29.3116C216.828 29.6641 217.088 29.9327 217.407 30.1173C217.734 30.302 218.078 30.3943 218.439 30.3943C218.809 30.3943 219.153 30.302 219.472 30.1173C219.799 29.9243 220.059 29.6473 220.252 29.2864C220.454 28.9254 220.554 28.5058 220.554 28.0273Z" fill="#232323"/>
<path d="M224.87 22.2105V31.5275H223.434V22.2105H224.87Z" fill="#232323"/>
<path d="M233.112 27.8888C233.112 28.149 233.095 28.3841 233.062 28.5939H227.761C227.803 29.1479 228.009 29.5927 228.378 29.9285C228.748 30.2642 229.201 30.4321 229.738 30.4321C230.51 30.4321 231.056 30.109 231.375 29.4626H232.923C232.714 30.1006 232.332 30.6252 231.778 31.0365C231.232 31.4393 230.552 31.6408 229.738 31.6408C229.075 31.6408 228.479 31.4939 227.95 31.2001C227.43 30.898 227.018 30.4783 226.716 29.9411C226.422 29.3955 226.276 28.766 226.276 28.0525C226.276 27.339 226.418 26.7137 226.704 26.1765C226.997 25.6309 227.405 25.2112 227.925 24.9175C228.454 24.6237 229.058 24.4768 229.738 24.4768C230.393 24.4768 230.976 24.6195 231.488 24.9049C232 25.1903 232.399 25.5932 232.684 26.1136C232.97 26.6256 233.112 27.2173 233.112 27.8888ZM231.614 27.4356C231.606 26.9068 231.417 26.4829 231.047 26.1639C230.678 25.845 230.221 25.6855 229.675 25.6855C229.18 25.6855 228.756 25.845 228.403 26.1639C228.051 26.4745 227.841 26.8984 227.774 27.4356H231.614Z" fill="#232323"/>
<path d="M60.268 33.5078C60.268 45.5427 50.5118 55.299 38.4768 55.299C26.4418 55.299 16.6855 45.5427 16.6855 33.5078C16.6855 21.4728 26.4418 11.7165 38.4768 11.7165C50.5118 11.7165 60.268 21.4728 60.268 33.5078Z" fill="#5951FF"/>
<path d="M49.6976 27.3537L44.7481 26.0917C44.1361 25.9335 43.6064 25.5455 43.2667 25.0065L40.5511 20.6291C40.3337 20.2698 40.0281 19.9737 39.6641 19.7696C39.3 19.5656 38.8899 19.4605 38.4738 19.4646C38.0587 19.4615 37.6499 19.5671 37.287 19.7711C36.9241 19.9752 36.6193 20.2707 36.4025 20.6291L33.6808 25.0065C33.3448 25.5464 32.8167 25.935 32.2056 26.0917L27.2561 27.3537C26.8535 27.456 26.4831 27.6602 26.1798 27.9471C25.8764 28.2341 25.6501 28.5943 25.5219 28.9941C25.3937 29.3938 25.3678 29.82 25.4468 30.2326C25.5258 30.6452 25.7071 31.0308 25.9735 31.3531L29.2432 35.322C29.6474 35.812 29.85 36.4407 29.8092 37.0778L29.4659 42.2356C29.4437 42.5748 29.4904 42.915 29.6031 43.2352C29.7158 43.5555 29.8922 43.8489 30.1213 44.0974C30.3503 44.3459 30.6273 44.5443 30.9351 44.6802C31.2428 44.8161 31.5748 44.8867 31.9106 44.8876C32.2239 44.8875 32.5345 44.8275 32.8258 44.7108L37.5645 42.7843C37.8542 42.6689 38.1625 42.609 38.4738 42.6075C38.787 42.6084 39.0974 42.6683 39.389 42.7843L44.1278 44.7108C44.4192 44.8275 44.7298 44.8875 45.0431 44.8876C45.3788 44.8867 45.7107 44.8161 46.0185 44.6802C46.3262 44.5443 46.6032 44.3459 46.8323 44.0974C47.0614 43.8489 47.2378 43.5555 47.3505 43.2352C47.4632 42.915 47.5099 42.5748 47.4876 42.2356L47.1445 37.0778C47.1036 36.4407 47.3063 35.812 47.7105 35.322L50.98 31.3531C51.2465 31.0308 51.4277 30.6452 51.5067 30.2326C51.5857 29.82 51.56 29.3938 51.4318 28.9941C51.3036 28.5943 51.0771 28.2341 50.7738 27.9471C50.4704 27.6602 50.1002 27.456 49.6976 27.3537Z" fill="white"/>
</g>
<defs>
<filter id="filter0_d_754_1449" x="0" y="0" width="326.826" height="75.984" filterUnits="userSpaceOnUse" color-interpolation-filters="sRGB">
<feFlood flood-opacity="0" result="BackgroundImageFix"/>
<feColorMatrix in="SourceAlpha" type="matrix" values="0 0 0 0 0 0 0 0 0 0 0 0 0 0 0 0 0 0 127 0" result="hardAlpha"/>
<feOffset dy="4"/>
<feGaussianBlur stdDeviation="3.5"/>
<feComposite in2="hardAlpha" operator="out"/>
<feColorMatrix type="matrix" values="0 0 0 0 0 0 0 0 0 0 0 0 0 0 0 0 0 0 0.25 0"/>
<feBlend mode="normal" in2="BackgroundImageFix" result="effect1_dropShadow_754_1449"/>
<feBlend mode="normal" in="SourceGraphic" in2="effect1_dropShadow_754_1449" result="shape"/>
</filter>
</defs>
</svg>
