<svg width="60" height="60" viewBox="0 0 60 60" fill="none" xmlns="http://www.w3.org/2000/svg">
<g clip-path="url(#clip0_972_2146)">
<path d="M2.25664 38.344C2.93789 38.344 3.57695 38.3346 4.21758 38.3471C4.9082 38.3596 5.31602 38.7236 5.3082 39.294C5.30039 39.8596 4.87695 40.2268 4.20039 40.2361C3.56133 40.2455 2.92227 40.2377 2.25195 40.2377V44.4721C2.9082 44.4721 3.5457 44.4658 4.1832 44.4736C4.89102 44.4815 5.33008 44.8705 5.31133 45.4549C5.29414 46.0174 4.88477 46.3486 4.17852 46.3565C3.55664 46.3627 2.93477 46.3565 2.26602 46.3565V50.6299C2.90977 50.6299 3.54883 50.6221 4.18633 50.6315C4.89102 50.6408 5.30039 50.9815 5.31133 51.5455C5.32383 52.1299 4.88477 52.5127 4.17539 52.5221C3.55352 52.5299 2.93008 52.5236 2.26289 52.5236V57.7627H16.7348C16.7395 57.7502 16.7754 57.7033 16.766 57.6877C16.1457 56.7111 16.0066 55.6408 16.0129 54.5018C16.0379 49.3346 16.0238 44.1658 16.0238 38.9986C16.0238 38.7877 16.0238 38.5768 16.0238 38.3768C15.4113 38.583 14.8441 38.8471 14.2473 38.9643C11.566 39.494 9.03164 37.4221 9.01602 34.6861C8.99727 31.3127 8.98633 27.9393 9.01914 24.5658C9.06133 20.1768 12.7895 16.2252 17.1426 15.9111C17.8223 15.8627 18.5051 15.8361 19.1863 15.8346C26.3004 15.8299 33.416 15.8346 40.5301 15.8299C41.7098 15.8299 42.8113 16.0533 43.7566 16.8127C45.4348 18.158 45.9238 20.4221 44.9488 22.3408C44.8801 22.4768 44.8082 22.6096 44.6863 22.844C44.9691 22.844 45.1707 22.844 45.3738 22.844C48.9598 22.844 52.5473 22.8377 56.1332 22.8471C57.8316 22.8518 59.0941 23.8268 59.4613 25.4002C59.5223 25.6611 59.5301 25.9408 59.5301 26.2111C59.5332 33.7377 59.5348 41.2658 59.5316 48.7924C59.5316 50.7815 58.1488 52.1549 56.1395 52.1611C53.7801 52.1674 51.4223 52.1627 49.0629 52.1627C48.8551 52.1627 48.6457 52.1627 48.3769 52.1627C48.3769 52.4424 48.3769 52.6518 48.3769 52.8611C48.3769 54.7143 48.3816 56.5658 48.3754 58.419C48.3723 59.3783 48.0676 59.6721 47.1082 59.6721C31.9426 59.6721 16.777 59.6721 1.61289 59.6721C0.633203 59.6721 0.353516 59.3971 0.353516 58.4361C0.353516 39.7549 0.353516 21.0721 0.353516 2.39083C0.353516 2.37208 0.353516 2.35177 0.353516 2.33302C0.358203 1.57365 0.672266 1.17833 1.27383 1.17052C1.88164 1.16271 2.21914 1.56427 2.21914 2.30802C2.22227 3.8674 2.21914 5.42833 2.21914 6.98771C2.21914 7.17677 2.21914 7.3674 2.21914 7.61583C2.85508 7.61583 3.43477 7.61583 4.01445 7.61583C4.85039 7.6174 5.29414 7.93771 5.30977 8.54865C5.32539 9.18146 4.8832 9.50646 3.99727 9.50958C3.43477 9.51115 2.87227 9.50958 2.26445 9.50958V13.7705C2.74414 13.7705 3.24102 13.7674 3.73789 13.7705C3.99102 13.7721 4.24727 13.7658 4.49727 13.7971C5.02227 13.8643 5.2832 14.2018 5.30508 14.7096C5.32852 15.2174 4.93477 15.633 4.38945 15.6533C3.69258 15.6799 2.99258 15.6596 2.25664 15.6596V19.8986C2.8957 19.8986 3.53164 19.894 4.16758 19.8986C4.88164 19.9049 5.31914 20.2799 5.31133 20.8643C5.30352 21.4283 4.8957 21.7768 4.1957 21.7893C3.5582 21.8002 2.91914 21.7924 2.25039 21.7924V26.0549C2.88945 26.0549 3.5082 26.0486 4.12539 26.0549C4.88008 26.0643 5.29727 26.3908 5.31133 26.969C5.32695 27.5705 4.87852 27.9408 4.11914 27.9471C3.55352 27.9518 2.98789 27.9502 2.42383 27.9533C2.38633 27.9533 2.34727 27.9658 2.26445 27.9815V32.1861C2.91602 32.1861 3.58945 32.1768 4.26133 32.1893C4.91602 32.2018 5.33789 32.6158 5.3082 33.1861C5.28164 33.694 4.91445 34.0486 4.3332 34.069C3.65508 34.0908 2.97539 34.0736 2.2582 34.0736V38.3424L2.25664 38.344ZM30.3363 34.2752C30.3363 33.9908 30.3363 33.7611 30.3363 33.5315C30.3363 31.0158 30.3332 28.5002 30.3363 25.9861C30.341 23.9611 31.4645 22.8455 33.4926 22.844C35.9676 22.8424 38.4426 22.8533 40.9176 22.8393C42.4488 22.8299 43.5348 21.7596 43.5348 20.2986C43.5348 18.8408 42.4504 17.7627 40.916 17.7611C33.2754 17.7518 25.6363 17.7346 17.9957 17.769C14.1176 17.7861 11.0254 20.7533 10.9066 24.6346C10.8035 27.9658 10.852 31.3033 10.8941 34.6361C10.9145 36.3174 12.3895 37.4268 14.0145 37.0971C15.202 36.8565 16.0129 35.7908 16.016 34.4283C16.0238 31.4846 16.016 28.5393 16.0207 25.5955C16.0207 25.383 16.0066 25.1518 16.0848 24.9643C16.2676 24.5236 16.6316 24.2815 17.1098 24.3815C17.6285 24.4893 17.891 24.844 17.8895 25.394C17.8848 28.144 17.8879 30.8924 17.8879 33.6424C17.8879 33.8486 17.8879 34.0549 17.8879 34.2768H30.3348L30.3363 34.2752ZM17.927 36.2268C17.9098 36.3299 17.8926 36.3877 17.8926 36.4455C17.891 42.6846 17.8863 48.9221 17.9004 55.1611C17.9004 55.5377 18.0113 55.9393 18.1676 56.2846C18.6566 57.3721 19.8848 57.9783 21.0113 57.7377C22.2941 57.4627 23.1582 56.4658 23.1613 55.1908C23.1723 51.0002 23.166 46.808 23.1676 42.6158C23.1676 41.7018 23.502 41.2143 24.1254 41.2174C24.7535 41.2205 25.0613 41.6799 25.0613 42.6252C25.0613 46.6408 25.0613 50.6565 25.0645 54.6736C25.0645 55.0033 25.0801 55.3377 25.1332 55.6627C25.3629 57.0471 26.8035 58.0268 28.1645 57.7408C29.5566 57.4471 30.3301 56.4549 30.3316 54.9111C30.3363 48.8674 30.3348 42.8236 30.3316 36.7815C30.3316 36.6096 30.316 36.4361 30.3051 36.2252H17.9238L17.927 36.2268ZM37.1832 37.4815C37.1832 41.1846 37.1832 44.8877 37.1832 48.5908C37.1832 49.7736 37.6301 50.2424 38.7879 50.244C44.5348 50.2486 50.2816 50.2471 56.0301 50.244C57.177 50.244 57.6598 49.7549 57.6613 48.6049C57.6629 41.1986 57.6629 33.7924 57.6613 26.3861C57.6613 25.2627 57.1785 24.7674 56.0738 24.7658C50.3066 24.7611 44.541 24.7611 38.7738 24.7658C37.6473 24.7658 37.1848 25.2408 37.1848 26.3721C37.1848 30.0752 37.1848 33.7783 37.1848 37.4815H37.1832ZM46.4082 52.1627C43.8395 52.1627 41.3254 52.1705 38.8113 52.1549C38.3879 52.1518 37.9488 52.1065 37.5473 51.9861C36.1098 51.5533 35.3035 50.3502 35.3035 48.6736C35.3004 41.419 35.2988 34.1643 35.3066 26.9096C35.3066 26.2143 35.3816 25.5205 35.4254 24.7643C34.8598 24.7643 34.2207 24.7643 33.5816 24.7643C32.4441 24.7643 32.2535 24.9533 32.2535 26.0799C32.2535 35.1486 32.2535 44.2174 32.2535 53.2861C32.2535 54.8158 32.4098 56.3736 31.416 57.758H46.452C46.452 55.958 46.452 54.2033 46.452 52.4486C46.452 52.3752 46.4316 52.3002 46.4098 52.1611L46.4082 52.1627Z" fill="#1562D9"/>
<path d="M30.8009 7.55177C30.7774 11.4424 27.5852 14.619 23.7118 14.6065C19.843 14.5924 16.6587 11.3768 16.6759 7.49865C16.6915 3.55334 19.8774 0.445525 23.8821 0.4674C27.6743 0.487712 30.8243 3.71271 30.8009 7.55334V7.55177ZM23.6587 12.6924C26.3774 12.7658 28.8102 10.5158 28.893 7.85021C28.9883 4.8174 26.7899 2.4174 23.8462 2.33928C21.1071 2.26584 18.6555 4.54084 18.5821 7.22365C18.4977 10.2674 20.6743 12.6112 23.6587 12.6924Z" fill="#1562D9"/>
<path d="M47.4129 30.872C45.0364 30.872 42.6614 30.872 40.2848 30.872C39.3067 30.872 38.9786 30.5485 38.9739 29.5829C38.9692 28.7454 38.9645 27.9079 38.9754 27.0704C38.9864 26.2813 39.3301 25.9048 40.1129 25.9032C44.9817 25.8923 49.8504 25.8923 54.7176 25.9032C55.502 25.9048 55.8333 26.2688 55.8458 27.0751C55.8598 27.9517 55.8614 28.8282 55.8458 29.7048C55.8317 30.5298 55.4817 30.8688 54.6551 30.8704C52.2411 30.8751 49.8254 30.872 47.4114 30.872H47.4129ZM53.9145 27.8501H40.9301V28.9188H53.9145V27.8501Z" fill="#1562D9"/>
<path d="M41.4057 43.0608C40.9385 43.0608 40.4697 43.0702 40.0025 43.0593C39.3822 43.0452 39.0025 42.7171 38.9838 42.0968C38.9525 41.103 38.9541 40.1077 38.9838 39.1155C39.0025 38.4921 39.3744 38.153 39.9932 38.1437C40.9666 38.1312 41.9416 38.1312 42.915 38.1437C43.5354 38.1515 43.915 38.4874 43.9354 39.1062C43.9666 40.0999 43.9666 41.0952 43.9354 42.0874C43.915 42.7296 43.5307 43.0499 42.8666 43.0608C42.3791 43.0687 41.8932 43.0608 41.4057 43.0608ZM40.9229 40.0343V41.1546H41.9854V40.0343H40.9229Z" fill="#1562D9"/>
<path d="M47.4147 36.9657C46.9272 36.9657 46.4397 36.9767 45.9537 36.9626C45.3475 36.9454 44.9568 36.5907 44.9412 35.9845C44.9147 34.9907 44.9162 33.9954 44.9412 33.0032C44.9568 32.4079 45.3053 32.0563 45.8975 32.0407C46.91 32.0157 47.924 32.0157 48.9365 32.0407C49.5303 32.0563 49.8725 32.3954 49.8912 33.0048C49.9209 33.9985 49.924 34.9938 49.8912 35.986C49.8693 36.6267 49.4787 36.9517 48.8193 36.9642C48.3522 36.9735 47.8834 36.9657 47.4162 36.9642L47.4147 36.9657ZM47.9553 33.9642H46.8834V35.047H47.9553V33.9642Z" fill="#1562D9"/>
<path d="M47.3688 43.0608C46.9016 43.0608 46.4328 43.0687 45.9656 43.0593C45.3406 43.0452 44.9578 42.7155 44.9406 42.1046C44.9125 41.1108 44.9141 40.1171 44.9391 39.1233C44.9547 38.5046 45.3281 38.153 45.9406 38.1452C46.9141 38.1312 47.8891 38.1327 48.8625 38.1452C49.4891 38.153 49.8672 38.478 49.8859 39.0999C49.9187 40.1124 49.9188 41.128 49.8812 42.139C49.8594 42.7312 49.4797 43.0374 48.8859 43.0624C48.8469 43.064 48.8078 43.0624 48.7688 43.0624C48.3016 43.0624 47.8328 43.0624 47.3656 43.0624L47.3688 43.0608ZM47.9547 40.0562H46.8813V41.1562H47.9547V40.0562Z" fill="#1562D9"/>
<path d="M47.4178 49.1752C46.9303 49.1752 46.4428 49.1893 45.9568 49.1721C45.3225 49.1486 44.9568 48.8189 44.9412 48.2033C44.9147 47.2096 44.9162 46.2143 44.9412 45.2221C44.9568 44.6158 45.3459 44.2518 45.9522 44.2439C46.9256 44.2299 47.9006 44.2299 48.874 44.2439C49.4881 44.2533 49.8678 44.5955 49.8881 45.2189C49.9209 46.2127 49.9209 47.208 49.8881 48.2002C49.8678 48.8314 49.51 49.1486 48.8772 49.1736C48.3912 49.1924 47.9037 49.1768 47.4162 49.1783L47.4178 49.1752ZM47.9506 46.1627H46.8756V47.2502H47.9506V46.1627Z" fill="#1562D9"/>
<path d="M41.4537 36.9673C40.9865 36.9673 40.5178 36.9751 40.0506 36.9657C39.399 36.9517 39.0053 36.6157 38.9865 35.9782C38.9568 34.9845 38.9584 33.9892 38.9865 32.997C39.0037 32.3954 39.3522 32.0563 39.9506 32.0407C40.9631 32.0157 41.9772 32.0157 42.9897 32.0407C43.5787 32.0563 43.924 32.4063 43.9397 33.011C43.9662 34.0048 43.9678 35.0001 43.9381 35.9923C43.9193 36.6032 43.5272 36.9454 42.9162 36.9626C42.4287 36.9767 41.9428 36.9657 41.4553 36.9657L41.4537 36.9673ZM40.9334 33.9454V35.0485H41.9803V33.9454H40.9334Z" fill="#1562D9"/>
<path d="M41.4391 49.1752C40.9719 49.1752 40.5031 49.1877 40.0359 49.1721C39.3656 49.1502 39.0016 48.8283 38.9828 48.1783C38.9562 47.2049 38.9562 46.2283 38.9828 45.2549C39 44.6033 39.3766 44.2486 40.0219 44.2408C40.9766 44.2283 41.9312 44.2283 42.8859 44.2408C43.5297 44.2486 43.9203 44.6002 43.9391 45.2408C43.9672 46.2143 43.9656 47.1908 43.9391 48.1643C43.9219 48.8221 43.5641 49.1393 42.9 49.1752C42.8609 49.1768 42.8219 49.1768 42.7828 49.1768C42.3344 49.1768 41.8859 49.1768 41.4391 49.1768V49.1752ZM40.9375 46.1518V47.2408H41.9859V46.1518H40.9375Z" fill="#1562D9"/>
<path d="M53.3379 43.061C52.8504 43.061 52.3629 43.072 51.877 43.0579C51.2879 43.0407 50.9145 42.7048 50.8988 42.1204C50.8723 41.1079 50.8723 40.0938 50.8988 39.0813C50.9145 38.4985 51.2879 38.1548 51.8785 38.147C52.8723 38.1313 53.866 38.1313 54.8582 38.147C55.4551 38.1563 55.8113 38.4782 55.8301 39.0845C55.8629 40.097 55.8645 41.111 55.8301 42.1235C55.8082 42.7517 55.4441 43.0485 54.7973 43.061C54.3098 43.0704 53.8238 43.0626 53.3363 43.061H53.3379ZM53.8988 41.1704V40.047H52.827V41.1704H53.8988Z" fill="#1562D9"/>
<path d="M53.3397 49.1674C52.8334 49.1674 52.3256 49.1893 51.8209 49.1611C51.26 49.1299 50.9131 48.7908 50.899 48.2283C50.8756 47.2158 50.874 46.2018 50.899 45.1893C50.9131 44.6174 51.3037 44.2533 51.8787 44.2424C52.8725 44.2252 53.8662 44.2252 54.8584 44.2424C55.4272 44.2518 55.8006 44.5674 55.8209 45.1314C55.8584 46.1814 55.86 47.2361 55.8209 48.2861C55.8006 48.8502 55.4412 49.1455 54.8553 49.1689C54.349 49.1893 53.8428 49.1736 53.3365 49.1736C53.3365 49.1721 53.3365 49.1705 53.3365 49.1689L53.3397 49.1674ZM53.9084 46.1518H52.8272V47.2471H53.9084V46.1518Z" fill="#1562D9"/>
<path d="M53.4 32.0296C53.8875 32.0296 54.375 32.0108 54.8609 32.0342C55.4687 32.0624 55.8141 32.3717 55.8344 32.9749C55.8672 33.9874 55.8687 35.0014 55.8344 36.0139C55.8125 36.6374 55.4391 36.9546 54.8031 36.9624C53.8484 36.9749 52.8937 36.9749 51.9391 36.9624C51.2687 36.953 50.9062 36.5827 50.8953 35.8952C50.8812 34.9592 50.8812 34.0249 50.8953 33.0889C50.9062 32.3952 51.2422 32.0671 51.9406 32.0264C51.9797 32.0249 52.0188 32.0233 52.0578 32.0233C52.5063 32.0233 52.9531 32.0233 53.4016 32.0233C53.4016 32.0249 53.4016 32.0264 53.4016 32.0296H53.4ZM53.9187 33.9671H52.8328V35.0452H53.9187V33.9671Z" fill="#1562D9"/>
</g>
<defs>
<clipPath id="clip0_972_2146">
<rect width="60" height="60" fill="white"/>
</clipPath>
</defs>
</svg>
