<svg width="84" height="84" viewBox="0 0 84 84" fill="none" xmlns="http://www.w3.org/2000/svg">
<g clip-path="url(#clip0_638_190)">
<path d="M79.4605 64.0453C78.4057 62.9908 77.0038 62.4102 75.512 62.4102C75.5113 62.4102 75.5103 62.4102 75.5098 62.4102H75.3802C73.9562 62.4107 72.6934 63.1132 71.919 64.1895L63.6071 55.8776L61.9156 43.1913C61.17 37.5994 56.3534 33.3823 50.708 33.3823C49.1573 33.3823 47.896 34.6438 47.896 36.1944V39.0971C47.896 42.3482 45.251 44.9935 41.9996 44.9935C38.7484 44.9935 36.1032 42.3483 36.1032 39.0971V36.1944C36.1032 34.6436 34.8417 33.3823 33.2872 33.3823C27.6456 33.3823 22.829 37.5994 22.0837 43.1913L20.3921 55.8776L12.0823 64.1874C11.9479 64.001 11.7976 63.8241 11.6319 63.6584C10.8267 62.8534 9.75655 62.4102 8.61681 62.4102H8.61598C5.46533 62.4109 2.90234 64.9747 2.90234 68.1252C2.90234 71.2192 5.37444 73.7451 8.447 73.8357C7.69838 74.888 7.25656 76.1726 7.25656 77.5593C7.25673 81.1109 10.146 84 13.6973 84H70.3022C73.8536 84 76.7428 81.1109 76.7428 77.5594C76.7428 76.1728 76.3008 74.8883 75.5525 73.836C78.6247 73.7465 81.097 71.2104 81.097 68.1039V67.9946C81.097 66.5026 80.5159 65.1 79.4605 64.0453ZM53.7593 58.9165L54.2285 54.9287L54.6624 57.0984C55.0534 59.054 56.0058 60.8331 57.416 62.2435L66.2913 71.1188H56.1249L53.9953 62.6002C53.6931 61.3922 53.6137 60.1529 53.7593 58.9165ZM33.2913 36.1036C33.3414 36.1036 33.382 36.1443 33.382 36.1944V39.0971C33.382 43.8489 37.248 47.7148 41.9997 47.7148C46.7515 47.7148 50.6175 43.8489 50.6175 39.0971V36.1944C50.6175 36.1443 50.6583 36.1036 50.712 36.1036C51.7357 36.1036 52.723 36.2884 53.6416 36.6249L51.0565 58.5984C50.8721 60.1632 50.9727 61.7318 51.3549 63.2601L53.3196 71.1187H30.6799L32.6446 63.2601C33.0267 61.7315 33.1273 60.1631 32.9432 58.5984L30.358 36.6253C31.2774 36.2885 32.2659 36.1036 33.2913 36.1036ZM29.7712 54.9285L30.2404 58.9164C30.3859 60.1529 30.3065 61.3922 30.0045 62.6002L27.8748 71.1188H17.708L26.5833 62.2435C27.9936 60.8333 28.9458 59.0542 29.3369 57.0984L29.7712 54.9285ZM8.61746 71.1188C6.96683 71.1188 5.62398 69.776 5.62398 68.1253C5.62398 66.475 6.9665 65.1322 8.61762 65.1319C9.02942 65.1319 9.41661 65.292 9.70782 65.5832C9.9992 65.8744 10.1596 66.2616 10.1596 66.6739C10.1596 67.2243 10.4911 67.7203 10.9996 67.9309C11.5082 68.1416 12.0935 68.0253 12.4824 67.6359L22.6423 57.476C22.8537 57.2647 22.9897 56.9898 23.029 56.6938L24.7814 43.5509C25.0736 41.3589 26.191 39.4469 27.7923 38.1083L28.7432 46.1912L26.6686 56.5645C26.3833 57.9915 25.6883 59.2899 24.6593 60.3191L13.8598 71.1187H13.6973H8.61746V71.1188ZM36.2848 81.2787H13.6973C11.6465 81.2787 9.97803 79.6104 9.97803 77.5594C9.97803 75.5085 11.6464 73.8401 13.6973 73.8401H23.2221V74.5051C23.2221 76.5188 24.595 78.2303 26.5606 78.667L36.2846 80.828V81.2787H36.2848ZM36.2848 78.0401L27.1511 76.0104C26.4401 75.8524 25.9436 75.2334 25.9436 74.5049V73.8401H36.2848V78.0401ZM70.3022 81.2787H39.0063V73.8403H70.3023C72.353 73.8405 74.0213 75.5088 74.0213 77.5596C74.0213 79.6102 72.353 81.2787 70.3022 81.2787ZM78.3755 68.1039C78.3755 69.7663 77.0338 71.1188 75.3848 71.1188H70.1401L59.3405 60.3191C58.3113 59.2899 57.6164 57.9914 57.3311 56.5645L55.2563 46.191L56.2072 38.1081C57.8083 39.4467 58.9259 41.3589 59.2181 43.5511L60.9705 56.694C61.01 56.9901 61.1458 57.2649 61.3572 57.4762L71.5171 67.6361C71.9064 68.0253 72.4914 68.1416 73 67.9311C73.5086 67.7204 73.84 67.2243 73.84 66.6741C73.84 65.8239 74.5315 65.1322 75.3819 65.1319H75.5115C75.5118 65.1319 75.5121 65.1319 75.5126 65.1319C76.2772 65.1319 76.9961 65.4296 77.5368 65.9701C78.0776 66.5108 78.3757 67.2301 78.3757 67.9949V68.1039H78.3755Z" fill="url(#paint0_linear_638_190)"/>
<path d="M47.5561 7.05813C47.6617 6.62091 47.7154 6.1717 47.7154 5.71479C47.7154 2.5638 45.1516 0 42.0004 0C38.8493 0 36.2855 2.5638 36.2855 5.71495C36.2855 6.1722 36.3399 6.62107 36.4454 7.05781C32.0645 9.14271 29.0283 13.6116 29.0283 18.7776V20.1109C29.0283 20.8591 29.6324 21.4671 30.3808 21.4717C30.4693 21.4715 31.0292 21.4715 31.9311 21.4133V23.132C31.9311 28.6842 36.448 33.2012 42.0002 33.2012C47.5525 33.2012 52.0694 28.6842 52.0694 23.132V21.438C52.5621 21.5347 53.0763 21.59 53.6116 21.59C54.3632 21.59 54.9723 20.9808 54.9723 20.2292V18.7778C54.9723 13.6119 51.9365 9.14304 47.5561 7.05813ZM42.0004 2.7213C43.651 2.7213 44.9939 4.06416 44.9939 5.71479C44.9939 5.86195 44.9801 6.00666 44.9593 6.15005C44.008 5.92709 43.0186 5.80552 42.0004 5.80552C40.9824 5.80552 39.9928 5.92709 39.0417 6.14988C39.021 6.00682 39.0069 5.86212 39.0069 5.71479C39.0069 4.06432 40.3498 2.7213 42.0004 2.7213ZM49.3481 23.1318C49.3481 27.1834 46.0519 30.4795 42.0004 30.4795C37.9489 30.4795 34.6527 27.1834 34.6527 23.1318V21.1358C37.7099 20.7154 41.9766 19.7679 46.0039 17.6306C46.7021 18.4364 47.8458 19.5666 49.3483 20.4135L49.3481 23.1318ZM47.4847 15.1169C47.0829 14.5179 46.2836 14.3361 45.6623 14.7033C40.4704 17.7714 34.4007 18.5136 31.7501 18.693C31.7961 13.0797 36.3765 8.52698 42.0004 8.52698C47.6228 8.52698 52.2025 13.0773 52.2505 18.6887C49.4236 17.9456 47.5068 15.1494 47.4847 15.1169Z" fill="url(#paint1_linear_638_190)"/>
</g>
<defs>
<linearGradient id="paint0_linear_638_190" x1="41.9997" y1="33.3823" x2="41.9997" y2="84" gradientUnits="userSpaceOnUse">
<stop stop-color="#1E59FF"/>
<stop offset="1" stop-color="#123599"/>
</linearGradient>
<linearGradient id="paint1_linear_638_190" x1="42.0003" y1="0" x2="42.0003" y2="33.2012" gradientUnits="userSpaceOnUse">
<stop stop-color="#1E59FF"/>
<stop offset="1" stop-color="#123599"/>
</linearGradient>
<clipPath id="clip0_638_190">
<rect width="84" height="84" fill="white"/>
</clipPath>
</defs>
</svg>
